<svg width="83" height="83" viewBox="0 0 83 83" fill="none" xmlns="http://www.w3.org/2000/svg">
<path d="M5.50636 40.2789L36.1541 57.978L79.898 32.3263L46.8342 13.4888L2.97559 38.8129" stroke="#85A4D2" stroke-width="2" stroke-linecap="round" stroke-linejoin="round"/>
<path d="M36.1541 69.9194L2.97559 50.7625V38.813" stroke="#85A4D2" stroke-width="2" stroke-linecap="round" stroke-linejoin="round"/>
<path d="M79.8982 32.3179V44.2674L36.1543 69.9191V57.9778" stroke="#85A4D2" stroke-width="2" stroke-linecap="round" stroke-linejoin="round"/>
<path d="M59.6357 48.4282L56.0483 50.5003V53.5553L57.0394 52.982V53.7682L58.6364 52.8427V52.0565L59.6357 51.4832V48.4282Z" fill="#85A4D2"/>
<path d="M64.8935 45.3896L61.3062 47.4618V50.5167L62.2972 49.9434V50.7297L63.8943 49.8124V49.0179L64.8935 48.4446V45.3896Z" fill="#85A4D2"/>
<path d="M70.1518 42.3594L66.5645 44.4315V47.4783L67.5555 46.9131V47.6994L69.1526 46.7739V45.9876L70.1518 45.4143V42.3594Z" fill="#85A4D2"/>
<path d="M75.4014 39.3208L71.8223 41.3929V44.4479L72.8133 43.8746V44.6608L74.4104 43.7353V42.9491L75.4014 42.3757V39.3208Z" fill="#85A4D2"/>
<path d="M44.4258 60.4507C45.0321 59.401 45.0315 58.2657 44.4243 57.9151C43.8172 57.5644 42.8335 58.1311 42.2272 59.1808C41.6209 60.2306 41.6216 61.3658 42.2287 61.7165C42.8358 62.0671 43.8195 61.5004 44.4258 60.4507Z" fill="#85A4D2"/>
<path d="M21.9194 58.1662V53.2603" stroke="#85A4D2" stroke-width="2" stroke-linecap="round" stroke-linejoin="round"/>
<path d="M25.2446 60.091V55.1851" stroke="#85A4D2" stroke-width="2" stroke-linecap="round" stroke-linejoin="round"/>
<path d="M28.578 62.0075L28.5698 57.1016" stroke="#85A4D2" stroke-width="2" stroke-linecap="round" stroke-linejoin="round"/>
<path d="M31.9033 63.9323V59.0264" stroke="#85A4D2" stroke-width="2" stroke-linecap="round" stroke-linejoin="round"/>
<path d="M42.1574 38.0757L33.23 43.2355L30.257 41.5156L28.75 47.5108L39.1843 46.6672L36.2113 44.9473L45.1304 39.7956L42.1574 38.0757Z" stroke="#85A4D2" stroke-width="2" stroke-linecap="round" stroke-linejoin="round"/>
<path d="M50.8965 38.1003L53.8695 39.8203L62.7969 34.6686L65.7699 36.3804L67.4079 30.4507L56.8426 31.2288L59.8238 32.9487L50.8965 38.1003Z" stroke="#85A4D2" stroke-width="2" stroke-linecap="round" stroke-linejoin="round"/>
<path d="M29.1514 30.7783L20.2241 35.93L17.251 34.2182L15.7358 40.2134L26.1784 39.3698L23.1971 37.6499L32.1244 32.4983L29.1514 30.7783Z" stroke="#85A4D2" stroke-width="2" stroke-linecap="round" stroke-linejoin="round"/>
<path d="M37.8906 30.803L40.8637 32.5229L49.791 27.3713L52.764 29.083L54.4021 23.1533L43.8367 23.9314L46.8098 25.6513L37.8906 30.803Z" stroke="#85A4D2" stroke-width="2" stroke-linecap="round" stroke-linejoin="round"/>
</svg>
