<svg width="81" height="81" viewBox="0 0 81 81" fill="none" xmlns="http://www.w3.org/2000/svg">
<path d="M7.52511 23.6842L40.5002 42.7192L76.205 22.1047L40.5002 1.49023L4.79541 22.1047" stroke="#85A4D2" stroke-width="2" stroke-linecap="round" stroke-linejoin="round"/>
<path d="M40.5002 52.2203L4.79541 31.6058V22.1045" stroke="#85A4D2" stroke-width="2" stroke-linecap="round" stroke-linejoin="round"/>
<path d="M8.87793 30.9986V27.6128" stroke="#85A4D2" stroke-width="2" stroke-linecap="round" stroke-linejoin="round"/>
<path d="M11.6968 32.6265V29.2407" stroke="#85A4D2" stroke-width="2" stroke-linecap="round" stroke-linejoin="round"/>
<path d="M14.5156 34.2468V30.8691" stroke="#85A4D2" stroke-width="2" stroke-linecap="round" stroke-linejoin="round"/>
<path d="M17.3423 35.8748V32.4971" stroke="#85A4D2" stroke-width="2" stroke-linecap="round" stroke-linejoin="round"/>
<path d="M76.2048 22.1045V31.6058L40.5 52.2203V42.719" stroke="#85A4D2" stroke-width="2" stroke-linecap="round" stroke-linejoin="round"/>
<path d="M45.4899 43.0754C46.2108 42.6542 46.8021 42.9944 46.8021 43.8287C46.778 44.2846 46.6466 44.7284 46.4186 45.1239C46.1906 45.5194 45.8724 45.8555 45.4899 46.1048C44.7609 46.526 44.1777 46.1858 44.1777 45.3515" stroke="#85A4D2" stroke-width="2" stroke-linecap="round" stroke-linejoin="round"/>
<path d="M50.1232 40.3944C50.8522 39.9813 51.4354 40.3215 51.4354 41.1558C51.4113 41.6117 51.2799 42.0555 51.0519 42.451C50.8239 42.8465 50.5057 43.1826 50.1232 43.4319C49.4023 43.845 48.811 43.5048 48.811 42.6705" stroke="#85A4D2" stroke-width="2" stroke-linecap="round" stroke-linejoin="round"/>
<path d="M54.7644 37.7214C55.4934 37.3002 56.0766 37.6404 56.0766 38.4747C56.0531 38.9307 55.9219 39.3748 55.6939 39.7704C55.4658 40.166 55.1473 40.502 54.7644 40.7508C54.0435 41.172 53.4521 40.8318 53.4521 39.9894" stroke="#85A4D2" stroke-width="2" stroke-linecap="round" stroke-linejoin="round"/>
<path d="M61.625 34.6841V35.4779" stroke="#85A4D2" stroke-width="2" stroke-linecap="round" stroke-linejoin="round"/>
<path d="M64.46 33.0479V33.8417" stroke="#85A4D2" stroke-width="2" stroke-linecap="round" stroke-linejoin="round"/>
<path d="M67.2949 31.4116V32.2054" stroke="#85A4D2" stroke-width="2" stroke-linecap="round" stroke-linejoin="round"/>
<path d="M70.1299 29.7754V30.5692" stroke="#85A4D2" stroke-width="2" stroke-linecap="round" stroke-linejoin="round"/>
<path d="M72.9648 28.1392V28.933" stroke="#85A4D2" stroke-width="2" stroke-linecap="round" stroke-linejoin="round"/>
<path d="M7.57373 37.357L40.5002 56.3677L76.205 35.7532L75.1682 35.1538" stroke="#85A4D2" stroke-width="2" stroke-linecap="round" stroke-linejoin="round"/>
<path d="M8.38371 33.6797L4.79541 35.7533" stroke="#85A4D2" stroke-width="2" stroke-linecap="round" stroke-linejoin="round"/>
<path d="M40.5002 65.8611L4.79541 45.2466V35.7534" stroke="#85A4D2" stroke-width="2" stroke-linecap="round" stroke-linejoin="round"/>
<path d="M8.87793 44.6387V41.2529" stroke="#85A4D2" stroke-width="2" stroke-linecap="round" stroke-linejoin="round"/>
<path d="M11.6968 46.2672V42.8813" stroke="#85A4D2" stroke-width="2" stroke-linecap="round" stroke-linejoin="round"/>
<path d="M14.5156 47.8951V44.5093" stroke="#85A4D2" stroke-width="2" stroke-linecap="round" stroke-linejoin="round"/>
<path d="M17.3423 49.523V46.1372" stroke="#85A4D2" stroke-width="2" stroke-linecap="round" stroke-linejoin="round"/>
<path d="M76.2048 35.7534V45.2466L40.5 65.8611V56.3679" stroke="#85A4D2" stroke-width="2" stroke-linecap="round" stroke-linejoin="round"/>
<path d="M45.4899 56.7001C46.2108 56.287 46.8021 56.6191 46.8021 57.4615C46.7761 57.9169 46.6439 58.36 46.4161 58.7552C46.1882 59.1504 45.871 59.4868 45.4899 59.7376C44.7609 60.1507 44.1777 59.8105 44.1777 58.9762" stroke="#85A4D2" stroke-width="2" stroke-linecap="round" stroke-linejoin="round"/>
<path d="M50.1232 54.0432C50.8522 53.622 51.4354 53.9622 51.4354 54.7965C51.412 55.2525 51.2808 55.6965 51.0528 56.0921C50.8247 56.4878 50.5061 56.8237 50.1232 57.0726C49.4023 57.4938 48.811 57.1536 48.811 56.3112" stroke="#85A4D2" stroke-width="2" stroke-linecap="round" stroke-linejoin="round"/>
<path d="M54.7644 51.3618C55.4934 50.9406 56.0766 51.2808 56.0766 52.1232C56.0531 52.5782 55.9219 53.0211 55.6938 53.4154C55.4657 53.8097 55.1471 54.1442 54.7644 54.3912C54.0435 54.8124 53.4521 54.4722 53.4521 53.6379" stroke="#85A4D2" stroke-width="2" stroke-linecap="round" stroke-linejoin="round"/>
<path d="M61.625 48.3242V49.118" stroke="#85A4D2" stroke-width="2" stroke-linecap="round" stroke-linejoin="round"/>
<path d="M64.46 46.6885V47.4823" stroke="#85A4D2" stroke-width="2" stroke-linecap="round" stroke-linejoin="round"/>
<path d="M67.2949 45.0522V45.846" stroke="#85A4D2" stroke-width="2" stroke-linecap="round" stroke-linejoin="round"/>
<path d="M70.1299 43.416V44.2098" stroke="#85A4D2" stroke-width="2" stroke-linecap="round" stroke-linejoin="round"/>
<path d="M72.9648 41.7798V42.5736" stroke="#85A4D2" stroke-width="2" stroke-linecap="round" stroke-linejoin="round"/>
<path d="M7.57373 50.9975L40.5002 70.0082L76.205 49.3937L75.1925 48.8105" stroke="#85A4D2" stroke-width="2" stroke-linecap="round" stroke-linejoin="round"/>
<path d="M8.38371 47.3198L4.79541 49.3934" stroke="#85A4D2" stroke-width="2" stroke-linecap="round" stroke-linejoin="round"/>
<path d="M40.5002 79.5094L4.79541 58.8949V49.3936" stroke="#85A4D2" stroke-width="2" stroke-linecap="round" stroke-linejoin="round"/>
<path d="M8.87793 58.2796V54.9019" stroke="#85A4D2" stroke-width="2" stroke-linecap="round" stroke-linejoin="round"/>
<path d="M11.6968 59.9075V56.5298" stroke="#85A4D2" stroke-width="2" stroke-linecap="round" stroke-linejoin="round"/>
<path d="M14.5156 61.5354V58.1577" stroke="#85A4D2" stroke-width="2" stroke-linecap="round" stroke-linejoin="round"/>
<path d="M17.3423 63.1638V59.7861" stroke="#85A4D2" stroke-width="2" stroke-linecap="round" stroke-linejoin="round"/>
<path d="M76.2048 49.3936V58.8949L40.5 79.5094V70.0081" stroke="#85A4D2" stroke-width="2" stroke-linecap="round" stroke-linejoin="round"/>
<path d="M45.4899 70.3645C46.2108 69.9433 46.8021 70.2835 46.8021 71.1178C46.7767 71.5734 46.6448 72.0166 46.4169 72.412C46.189 72.8073 45.8715 73.1436 45.4899 73.3939C44.7609 73.8151 44.1777 73.4749 44.1777 72.6325" stroke="#85A4D2" stroke-width="2" stroke-linecap="round" stroke-linejoin="round"/>
<path d="M50.1232 67.6836C50.8522 67.2624 51.4354 67.6026 51.4354 68.445C51.412 68.9 51.2808 69.3428 51.0527 69.7371C50.8245 70.1315 50.506 70.4659 50.1232 70.713C49.4023 71.1342 48.811 70.794 48.811 69.9597" stroke="#85A4D2" stroke-width="2" stroke-linecap="round" stroke-linejoin="round"/>
<path d="M54.7644 65.0023C55.4934 64.5892 56.0766 64.9294 56.0766 65.7637C56.0524 66.2196 55.921 66.6634 55.693 67.0589C55.465 67.4544 55.1468 67.7905 54.7644 68.0398C54.0435 68.4529 53.4521 68.1127 53.4521 67.2784" stroke="#85A4D2" stroke-width="2" stroke-linecap="round" stroke-linejoin="round"/>
<path d="M61.625 61.9731V62.7669" stroke="#85A4D2" stroke-width="2" stroke-linecap="round" stroke-linejoin="round"/>
<path d="M64.46 60.3369V61.1307" stroke="#85A4D2" stroke-width="2" stroke-linecap="round" stroke-linejoin="round"/>
<path d="M67.2949 58.7007V59.4945" stroke="#85A4D2" stroke-width="2" stroke-linecap="round" stroke-linejoin="round"/>
<path d="M70.1299 57.0645V57.8583" stroke="#85A4D2" stroke-width="2" stroke-linecap="round" stroke-linejoin="round"/>
<path d="M72.9648 55.4199V56.2137" stroke="#85A4D2" stroke-width="2" stroke-linecap="round" stroke-linejoin="round"/>
</svg>
